<?xml version="1.0" encoding="utf-8"?>
<!-- Generator: Adobe Illustrator 25.0.0, SVG Export Plug-In . SVG Version: 6.00 Build 0)  -->
<svg version="1.1" id="Layer_1" xmlns="http://www.w3.org/2000/svg" xmlns:xlink="http://www.w3.org/1999/xlink" x="0px" y="0px"
	 viewBox="0 0 150 150" style="enable-background:new 0 0 150 150;" xml:space="preserve">
<image style="overflow:visible;" width="1920" height="1080" xlink:href="6AF7112C.jpg"  transform="matrix(1 0 0 1 -8332.3975 -8117)">
</image>
<g>
	<path d="M135.8,8.5c-6.4,0-12.9,0.5-19.2-0.1c-7.9-0.8-10.8,2.6-12.1,10C101,39.7,96.7,60.9,93,82.2c-0.7,4-2.1,5.5-6.4,5.4
		c-17.1-0.3-34.2-0.2-51.3,0c-3.9,0.1-5.4-1.3-6.2-4.8c-2.3-9.2-4.6-18.4-7.5-27.4c-1.8-5.5-1.2-7.5,5.2-7.2
		c12.3,0.5,24.7,0.1,37,0.1c3.9,0,8.2,0.3,8.1-5.4c-0.1-5.5-4.3-5.3-8.2-5.3c-16.1,0-32.3-0.1-48.4,0c-7.5,0-9.2,2.2-7.1,9.7
		c4,14.9,8.4,29.7,12.3,44.6c1.3,4.8,3.8,6.4,8.6,6.3C39.7,97.9,50.4,98,61,98c10.2,0,20.5-0.4,30.6,0.1c7.3,0.4,10-2.5,11.1-9.4
		c3.6-21.3,7.9-42.4,11.5-63.7c0.8-4.7,2.5-6.5,7.3-6c4.7,0.4,9.5,0,14.2,0.1c3.9,0.1,6.8-1.2,6.8-5.4
		C142.8,9.4,139.4,8.6,135.8,8.5z"/>
	<path d="M38.7,108.5c-9.2,0.1-15.8,7-15.8,16.4c0,9.7,6.8,16.8,16.2,16.8c9.1,0,16.5-7.6,16.4-16.8C55.4,115.6,48,108.3,38.7,108.5
		z M39.5,130.6c-4,0-5.9-2.2-6-5.7c-0.1-3.2,1.9-5.5,5-5.8c3.5-0.3,5.8,1.8,6,5.4C44.8,128.1,42.8,130.1,39.5,130.6z"/>
	<path d="M82.7,108.5c-9,0.1-15.9,7.2-16,16.4c0,9.6,7,16.8,16.3,16.8c9.3,0,16.4-7.3,16.3-16.8C99.3,115.4,92.1,108.3,82.7,108.5z
		 M82.8,130.6c-3.3-0.1-5.2-2.2-5.3-5.4c-0.1-3.6,2-6,5.4-6.1c3.5-0.1,5.4,2.3,5.7,5.8C88.3,128.5,86.5,130.7,82.8,130.6z"/>
</g>
</svg>
