<svg id="Layer_1" data-name="Layer 1" xmlns="http://www.w3.org/2000/svg" width="50" height="32" viewBox="0 0 50 32"><defs><style>.cls-1{fill:#e0dedf;}.cls-2,.cls-5{fill:#2d2c2a;}.cls-2{opacity:0.05;}.cls-3{fill:#f2f2f3;}.cls-4{fill:#f19023;}.cls-6{fill:#fff;}</style></defs><path class="cls-1" d="M48.1,32H1.9A1.8987,1.8987,0,0,1,0,30.1V1.9A1.8387,1.8387,0,0,1,1.9,0H48.1A1.8987,1.8987,0,0,1,50,1.9V30.1A1.8387,1.8387,0,0,1,48.1,32Z"/><ellipse class="cls-2" cx="25" cy="27.0225" rx="12.5106" ry="1.6434"/><circle class="cls-3" cx="25" cy="15.8447" r="12.5106"/><path class="cls-4" d="M31.7692,9.9515,25.0551,7.8533h0l-.0027-.0008-.0008.0019L18.2308,9.9515S17.811,21.0761,25,23.28h0C32.189,21.0761,31.7692,9.9515,31.7692,9.9515Z"/><path class="cls-4" d="M31.5934,11.7768l-6.54-2.0436h0l-.0027-.0008-.0008.0018-6.6436,2.0426S17.9977,22.6124,25,24.7593v0l0,0,0,0v0C32.0023,22.6124,31.5934,11.7768,31.5934,11.7768Z"/><path class="cls-5" d="M31.7692,10.7591,25.0551,8.661h0L25.0524,8.66l-.0008.0019-6.8208,2.0971S17.811,21.8837,25,24.0878v0h0v0C32.189,21.8837,31.7692,10.7591,31.7692,10.7591Z"/><path class="cls-6" d="M28.6265,19.2554,27.72,19.34c-.3449.0322-.69.0633-1.0345.098a.1366.1366,0,0,1-.1493-.06.6279.6279,0,0,0-.5429-.2742c-.4846-.0029-.9695-.0126-1.4539-.0015a1.6155,1.6155,0,0,1-1.0708-.3689c-.2159-.1712-.4155-.3631-.6231-.5449q-.2544-.2228-.5105-.4434a.387.387,0,1,1,.4743-.6117q.5214.36,1.0433.72a1.1736,1.1736,0,0,0,.6786.1991q.655.0014,1.31,0a.3674.3674,0,0,0,.0672-.0045.1.1,0,0,0,.093-.1111.1013.1013,0,0,0-.1048-.1011c-.0929-.0031-.186-.0014-.279-.0015-.1972,0-.3945.0007-.5917,0a.3693.3693,0,0,1-.3791-.3706.3543.3543,0,0,1,.3743-.3524c.5861,0,1.1723-.0036,1.7583.0013a1.3184,1.3184,0,0,1,.9055.2884,1.4762,1.4762,0,0,1,.3708.4988c.1651.3636.3152.7341.4706,1.1021C28.5606,19.0813,28.59,19.163,28.6265,19.2554Z"/><path class="cls-6" d="M20.7913,14.7952V13.0031a12.0856,12.0856,0,0,0,1.4767-.3854,1.851,1.851,0,0,1,.82.0059c.2629.0481.5263.094.7895.141.0156.0028.0308.0073.0588.014-.1146.1376-.2218.2668-.33.3956-.1663.1986-.3342.3961-.4987.5963a.1323.1323,0,0,1-.1221.0557c-.0645-.0043-.13-.0015-.1943-.001a.2163.2163,0,0,0-.2327.155.214.214,0,0,0,.1242.2511q.4492.2523.8991.5034c.0835.0468.1676.0926.25.1411a.3655.3655,0,0,1,.1582.4672.3587.3587,0,0,1-.4423.2q-.66-.207-1.3183-.4223a1,1,0,0,1-.4334-.2985,1.6841,1.6841,0,0,0-.1237-.1269.2513.2513,0,0,0-.25-.0611c-.1873.0514-.3757.0984-.5637.1469C20.84,14.786,20.8211,14.7891,20.7913,14.7952Z"/><path class="cls-6" d="M19.96,12.7707h.5612v2.4035h-.3374Z"/><path class="cls-6" d="M28.86,20.05H26.4555v-.3351l2.4041-.2239Z"/><path class="cls-4" d="M25.6617,11.0976l-2.581,3.0779c.0428.0246.0743.0429.106.0608.2576.1449.5164.2879.7727.4351a.6058.6058,0,0,1-.1446,1.11.6809.6809,0,0,1-.4219-.0311c-.2879-.0943-.5769-.185-.8655-.2772l-.0089.0142,1.847,1.55,3.4586-4.1243Z"/></svg>