<?xml version="1.0" encoding="utf-8"?>
<!-- Generator: Adobe Illustrator 25.0.0, SVG Export Plug-In . SVG Version: 6.00 Build 0)  -->
<svg version="1.1" id="Layer_1" xmlns="http://www.w3.org/2000/svg" xmlns:xlink="http://www.w3.org/1999/xlink" x="0px" y="0px"
	 viewBox="0 0 150 150" style="enable-background:new 0 0 150 150;" xml:space="preserve">
<g>
	<path d="M138.5,41.1c-1,3.8-1.9,7.6-2.9,11.4c-0.3,1.4-0.6,2.7-1.1,4c-0.7,1.8-0.2,3,1.2,4.3c3,2.9,5.8,5.9,8.7,8.9
		c0.8,0.9,1.5,1.8,2.2,2.8c1.3,1.8,1.4,3.4-0.1,5c-2.9,3.3-6,6.4-9.1,9.6c-4.1,4.2-3.5,2.6-2.2,7.9c1,4.3,2.1,8.7,3,13
		c0.5,2.5-0.4,4.2-2.9,5.1c-4.4,1.4-8.8,2.8-13.3,3.8c-2.7,0.6-4.1,1.8-4.7,4.6c-1,4.4-2.4,8.7-3.8,13c-1.1,3.4-2.5,4.2-6,3.5
		c-4.5-0.9-8.9-2-13.3-3.4c-2.3-0.7-3.9-0.3-5.5,1.5c-2.6,2.8-5.3,5.3-8,7.9c-0.9,0.8-1.8,1.6-2.7,2.3c-2.2,1.6-3.6,1.6-5.7-0.1
		c-1.6-1.2-3-2.6-4.4-4c-2.4-2.4-4.8-4.8-7.2-7.2c-0.7-0.7-1.4-1-2.5-0.7c-4.6,1.2-9.2,2.3-13.8,3.4c-0.8,0.2-1.6,0.3-2.4,0.4
		c-2.5,0.3-4.1-0.5-5-2.8c-1.2-3.5-2.2-7.2-3.2-10.8c-2.2-7.7-0.2-5.7-7.7-7.9c-3.5-1-6.9-1.9-10.3-3.1c-3.5-1.2-4.3-2.6-3.6-6.1
		c0.9-4.5,2.1-8.9,3.4-13.3c0.7-2.2,0.3-3.8-1.4-5.4c-3-2.8-5.8-5.9-8.7-8.9c-0.7-0.7-1.3-1.6-1.9-2.4c-1.1-1.6-1.2-3.3,0.1-4.8
		c1.8-2.2,3.8-4.3,5.7-6.3c1.9-1.9,3.8-3.8,5.7-5.7c0.8-0.7,1-1.5,0.7-2.6c-1.2-4.6-2.3-9.2-3.4-13.8c-0.2-0.7-0.3-1.5-0.4-2.2
		c-0.3-2.6,0.4-4.2,2.9-5.1c3.5-1.2,7.2-2.2,10.8-3.2c1.1-0.3,2.3-0.7,3.4-0.9c2.2-0.3,3-1.5,3.5-3.5c1-4,2.2-8,3.3-12
		c0.3-1,0.7-1.9,1.1-2.9c1-2.1,2.5-3.1,4.8-2.6c4.4,0.9,8.7,1.8,13,3.2c3.1,1,5.2,0.6,7.3-1.9c2.2-2.6,4.8-4.8,7.2-7.2
		c1-0.9,2-1.8,3.1-2.5c1.9-1.3,3.3-1.3,5.2,0.1c1.5,1.1,2.9,2.4,4.2,3.7c2.5,2.5,5,5,7.5,7.6c0.7,0.8,1.5,1,2.6,0.7
		c4.6-1.2,9.2-2.3,13.8-3.4c0.8-0.2,1.7-0.3,2.5-0.4c2.2-0.3,3.9,0.5,4.6,2.6c1.3,3.7,2.3,7.5,3.4,11.3c2.1,7.5,0.2,5.5,7.6,7.7
		c3.8,1.1,7.6,2.2,11.4,3.5C137.4,37.6,138.3,39.2,138.5,41.1z M7.5,74.5c1.3,1.5,2,2.3,2.8,3.1c2.9,3,5.7,6,8.7,8.9
		c2,2,2.6,4.3,1.8,7.1c-1.2,4.2-2.2,8.5-3.4,12.8c-0.5,1.7-0.1,2.4,1.6,2.9c4.6,1.2,9.1,2.6,13.7,3.9c2.5,0.7,4,2.2,4.6,4.7
		c1.1,4.4,2.3,8.7,3.5,13.1c0.6,2.3,0.7,2.3,3,1.7c4.8-1.1,9.5-2.3,14.2-3.5c1.9-0.5,3.6-0.1,5.1,1.3c2.6,2.6,5.2,5.2,7.8,7.7
		c1.3,1.3,2.7,2.6,4.1,3.9c0.8-0.7,1.5-1.2,2.2-1.8c3.2-3.1,6.4-6.2,9.6-9.4c1.9-1.9,4.1-2.4,6.6-1.7c4.4,1.2,8.8,2.3,13.2,3.5
		c1.4,0.4,2.2,0.1,2.6-1.4c1.2-4.3,2.5-8.5,3.5-12.7c0.8-3.4,2.7-5.4,6.2-6.2c4-0.9,7.9-2,11.8-3.1c2.4-0.7,2.4-0.7,1.8-3.1
		c-1.1-4.7-2.3-9.4-3.5-14.1c-0.5-2-0.1-3.7,1.4-5.2c1.5-1.5,3-3.1,4.5-4.6c2.3-2.4,4.7-4.7,7.1-7.2c-1-1.1-1.8-2.1-2.7-3.1
		c-2.8-2.9-5.7-5.9-8.6-8.8c-1.9-1.9-2.4-4.1-1.7-6.7c1.2-4.3,2.3-8.7,3.5-13.1c0.5-1.6,0-2.3-1.6-2.7c-4.6-1.2-9.1-2.6-13.7-3.9
		c-2.4-0.7-4-2.1-4.6-4.6c-1.2-4.5-2.5-8.9-3.6-13.4c-0.4-1.6-1.1-2-2.7-1.6c-4.7,1.3-9.4,2.4-14.1,3.6c-2.2,0.5-4.1,0.1-5.8-1.6
		c-2.3-2.3-4.6-4.6-6.9-6.8c-1.5-1.5-3.1-3-4.7-4.5c-0.9,0.8-1.7,1.4-2.4,2c-3.1,3-6.3,6.1-9.4,9.1c-2,2-4.2,2.5-6.9,1.7
		c-4.3-1.2-8.6-2.2-12.9-3.5c-1.7-0.5-2.3,0.1-2.7,1.6c-1.2,4.5-2.6,9-3.8,13.5c-0.7,2.7-2.3,4.2-5,4.9c-4.3,1.1-8.6,2.3-12.9,3.5
		c-2.2,0.6-2.2,0.7-1.7,2.9c1.1,4.7,2.3,9.4,3.5,14.1c0.5,2,0.1,3.8-1.4,5.4c-1.4,1.4-2.7,2.9-4.2,4.3C12.8,69.8,10.2,72.1,7.5,74.5
		z"/>
	<path d="M118.1,81.1c-1.7-0.2-3.3-0.5-5-0.7c1.3-12-1.8-22.6-9.9-31.5c-6.1-6.7-13.8-10.6-22.7-12c-17.8-2.7-35.3,7.7-41.6,24.8
		c-6.3,17.1,0.2,36.1,15.9,45.9c15.3,9.7,37,7.5,50.3-8.5c1.3,1,2.6,2,3.9,3.1c-10.1,13.7-32,21.8-52.1,12.4
		C35.8,104.9,26,81,34.1,59.6c8.1-21.3,31.3-32.9,53.1-26.5C109.1,39.5,121.4,61.3,118.1,81.1z"/>
	<path d="M60.4,83.2c6.8-3.9,13.3-7.6,19.9-11.4c6.2-3.5,12.3-7,18.5-10.6c1.8-1,3.3-0.7,4.1,0.7c0.8,1.4,0.2,2.8-1.5,3.8
		c-5.7,3.3-11.4,6.5-17.1,9.8c-7.6,4.3-15.1,8.6-22.7,12.9c-2.4,1.4-3.5,1.1-4.9-1.3c-3.2-5.4-6.3-10.7-9.4-16.2
		c-0.5-0.8-0.6-2.1-0.3-3c0.2-0.6,1.4-1.4,2.1-1.3c0.9,0.1,2,0.7,2.4,1.5c1.9,2.9,3.6,6,5.3,9C58,79.2,59.2,81.1,60.4,83.2z"/>
	<path d="M112.4,98c-1.8-1.1-3.2-2-4.4-2.8c1.4-3.3,2.8-6.4,4.2-9.6c1.5,0.4,3,0.8,5,1.4C115.6,90.7,114.1,94.3,112.4,98z"/>
</g>
</svg>
