<?xml version="1.0" encoding="utf-8"?>
<!-- Generator: Adobe Illustrator 24.0.1, SVG Export Plug-In . SVG Version: 6.00 Build 0)  -->
<svg version="1.1" id="Layer_1" xmlns="http://www.w3.org/2000/svg" xmlns:xlink="http://www.w3.org/1999/xlink" x="0px" y="0px"
	 viewBox="0 0 212 70" style="enable-background:new 0 0 212 70;" xml:space="preserve">
<style type="text/css">
	.st0{fill:#231F20;}
	.st1{fill:#FFFFFF;}
</style>
<g>
	<g>
		<g>
			<path class="st0" d="M4.98,63.17l10.57-2.93l-2.02-48.54L3.76,8.72h28.18l-10.27,2.97L18,60.23l10.51,2.93H4.98z M9.14,4.04
				c0-0.71,0.81-1.32,2.44-1.83c1.63-0.52,3.65-0.77,6.05-0.77c2.53,0,4.62,0.26,6.3,0.77c1.67,0.52,2.51,1.13,2.51,1.83
				c0,0.68-0.83,1.25-2.48,1.71c-1.65,0.46-3.76,0.69-6.33,0.69c-2.53,0-4.57-0.22-6.14-0.67C9.92,5.32,9.14,4.74,9.14,4.04z"/>
		</g>
		<path class="st1" d="M22.7,9.07c0,0-5.18,9.16-5.14,29.43"/>
		<path class="st1" d="M12.31,9.02c0,0,5.17,9.18,5.11,29.45"/>
		<path class="st1" d="M20.12,4.05c0,1.22-0.99,2.21-2.21,2.21c-1.22,0-2.21-0.99-2.21-2.21c0-1.22,0.99-2.21,2.21-2.21
			C19.13,1.84,20.12,2.83,20.12,4.05z"/>
	</g>
	<g>
		<path class="st0" d="M41.17,32.68c-0.17,1.13-0.31,2.26-0.42,3.4c-0.12,1.13-0.21,2.23-0.29,3.29c-0.07,1.06-0.13,2.06-0.16,3.01
			c-0.03,0.95-0.05,1.8-0.05,2.56c0,1.03,0.01,1.91,0.04,2.65c0.03,0.74,0.08,1.36,0.15,1.86c0.07,0.51,0.15,0.91,0.26,1.21
			c0.1,0.3,0.23,0.53,0.38,0.7c0.15,0.16,0.33,0.27,0.53,0.32c0.2,0.05,0.43,0.07,0.68,0.07c0.47,0,0.97-0.07,1.52-0.22
			c0.54-0.14,1.09-0.34,1.65-0.6l0.28,0.77c-0.35,0.29-0.79,0.58-1.32,0.88c-0.53,0.3-1.09,0.57-1.68,0.82
			c-0.59,0.25-1.16,0.45-1.72,0.6c-0.56,0.15-1.05,0.23-1.46,0.23c-0.27,0-0.52-0.02-0.75-0.07c-0.22-0.04-0.43-0.16-0.61-0.33
			c-0.18-0.18-0.34-0.44-0.48-0.79c-0.14-0.35-0.26-0.82-0.35-1.41c-0.09-0.59-0.16-1.34-0.21-2.23c-0.05-0.89-0.07-1.97-0.07-3.24
			c0-0.74,0.01-1.58,0.02-2.52c0.01-0.94,0.04-1.94,0.07-3.02c0.03-1.07,0.07-2.21,0.12-3.4c0.05-1.19,0.11-2.42,0.19-3.69
			c0.02-0.28,0.09-0.5,0.22-0.68c0.13-0.17,0.28-0.31,0.47-0.4s0.38-0.16,0.59-0.19c0.21-0.03,0.4-0.05,0.58-0.05
			C39.98,32.22,40.59,32.38,41.17,32.68z M39.9,25.97c-0.34,0-0.64-0.07-0.91-0.22c-0.26-0.14-0.49-0.33-0.67-0.56
			c-0.19-0.23-0.33-0.5-0.42-0.8c-0.1-0.3-0.15-0.61-0.15-0.93c0-0.45,0.07-0.84,0.22-1.18c0.15-0.34,0.34-0.63,0.57-0.86
			c0.23-0.23,0.49-0.41,0.78-0.52c0.28-0.11,0.56-0.17,0.83-0.17c0.33,0,0.63,0.06,0.89,0.19c0.26,0.12,0.49,0.29,0.68,0.51
			c0.19,0.22,0.34,0.47,0.44,0.75c0.1,0.28,0.15,0.59,0.15,0.91c0,0.35-0.06,0.69-0.18,1.03c-0.12,0.34-0.28,0.65-0.49,0.93
			c-0.21,0.28-0.46,0.5-0.76,0.67C40.59,25.88,40.26,25.97,39.9,25.97z"/>
		<path class="st0" d="M68.17,13.71c-0.35,2.52-0.69,5.09-1.01,7.73c-0.32,2.64-0.61,5.26-0.85,7.88c-0.24,2.62-0.44,5.19-0.59,7.73
			s-0.22,4.97-0.22,7.3c0,1.12,0.01,2.08,0.04,2.88c0.02,0.8,0.06,1.48,0.12,2.04c0.05,0.55,0.13,1,0.22,1.32
			c0.09,0.33,0.21,0.58,0.35,0.76c0.14,0.18,0.3,0.29,0.49,0.35c0.19,0.05,0.4,0.08,0.66,0.08c0.47,0,0.97-0.07,1.52-0.22
			c0.54-0.14,1.09-0.34,1.65-0.6l0.28,0.77c-0.35,0.29-0.79,0.58-1.32,0.88c-0.53,0.3-1.09,0.57-1.68,0.82
			c-0.59,0.25-1.16,0.45-1.72,0.6c-0.56,0.15-1.05,0.23-1.46,0.23c-0.3,0-0.57-0.03-0.79-0.1c-0.22-0.07-0.42-0.19-0.58-0.36
			c-0.16-0.17-0.3-0.4-0.41-0.69c-0.11-0.29-0.2-0.65-0.27-1.1c-0.09-0.59-0.16-1.29-0.21-2.08c-0.05-0.79-0.08-1.65-0.08-2.59
			c0-0.99,0.04-2,0.11-3.02c0.07-1.03,0.19-2.05,0.36-3.07l-0.13-0.03c-0.75,2.01-1.57,3.83-2.45,5.45
			c-0.88,1.62-1.79,3.01-2.73,4.16c-0.94,1.15-1.88,2.03-2.83,2.65c-0.95,0.62-1.85,0.93-2.72,0.93c-0.88,0-1.63-0.23-2.27-0.68
			c-0.63-0.45-1.15-1.05-1.56-1.78c-0.41-0.74-0.71-1.58-0.9-2.54c-0.2-0.96-0.29-1.94-0.29-2.95c0-1.22,0.13-2.42,0.4-3.6
			c0.26-1.18,0.64-2.31,1.13-3.37c0.49-1.06,1.09-2.04,1.78-2.95c0.69-0.91,1.47-1.69,2.33-2.34c0.86-0.65,1.79-1.17,2.79-1.54
			c1-0.37,2.05-0.56,3.15-0.56c0.77,0,1.54,0.1,2.31,0.3c0.77,0.2,1.53,0.53,2.29,0.98c0.05-1.68,0.11-3.4,0.18-5.13
			c0.07-1.74,0.16-3.43,0.26-5.07c0.1-1.64,0.21-3.2,0.32-4.67c0.12-1.47,0.24-2.77,0.38-3.92c0.03-0.24,0.11-0.44,0.23-0.62
			c0.13-0.17,0.29-0.31,0.48-0.42c0.2-0.1,0.41-0.18,0.66-0.23c0.24-0.05,0.49-0.07,0.75-0.07C66.91,13.23,67.52,13.39,68.17,13.71z
			 M62.91,34.65c-1.32-0.63-2.63-0.95-3.92-0.95c-0.95,0-1.82,0.15-2.61,0.46c-0.8,0.31-1.51,0.73-2.14,1.27s-1.19,1.17-1.67,1.9
			c-0.48,0.73-0.87,1.51-1.19,2.35c-0.31,0.84-0.55,1.71-0.71,2.61c-0.16,0.9-0.24,1.8-0.24,2.69c0,0.32,0.01,0.68,0.04,1.09
			c0.03,0.41,0.09,0.84,0.17,1.28c0.08,0.44,0.19,0.87,0.33,1.29c0.14,0.42,0.31,0.8,0.51,1.14c0.2,0.34,0.45,0.61,0.74,0.81
			c0.29,0.2,0.63,0.3,1.02,0.3c0.7,0,1.42-0.27,2.15-0.8c0.73-0.54,1.45-1.24,2.14-2.12s1.36-1.89,1.98-3.03
			c0.62-1.14,1.17-2.31,1.65-3.51c0.48-1.2,0.88-2.39,1.19-3.57C62.65,36.67,62.84,35.61,62.91,34.65z"/>
		<path class="st0" d="M87.12,48.99c0.06,0.03,0.13,0.07,0.23,0.13c0.09,0.05,0.18,0.11,0.26,0.18c0.08,0.06,0.15,0.13,0.21,0.21
			c0.06,0.07,0.09,0.15,0.09,0.22c0,0.04-0.01,0.08-0.04,0.12c-0.55,0.77-1.13,1.44-1.76,2.01c-0.63,0.57-1.28,1.05-1.96,1.43
			s-1.37,0.66-2.07,0.85c-0.7,0.18-1.4,0.27-2.08,0.27c-1.17,0-2.24-0.24-3.22-0.73c-0.98-0.49-1.82-1.15-2.52-1.99
			c-0.7-0.84-1.25-1.83-1.65-2.96C72.2,47.58,72,46.36,72,45.06c0-1.06,0.11-2.12,0.34-3.18c0.23-1.06,0.56-2.07,1-3.03
			c0.43-0.96,0.96-1.85,1.59-2.68c0.62-0.83,1.33-1.55,2.13-2.15c0.8-0.61,1.67-1.09,2.62-1.43c0.95-0.35,1.97-0.52,3.07-0.52
			c0.72,0,1.41,0.1,2.06,0.3c0.65,0.2,1.23,0.48,1.72,0.85c0.49,0.37,0.89,0.83,1.18,1.37c0.29,0.54,0.44,1.16,0.44,1.86
			c0,1.01-0.32,1.89-0.97,2.65c-0.65,0.75-1.54,1.39-2.69,1.92c-1.14,0.53-2.49,0.95-4.03,1.27c-1.55,0.32-3.22,0.56-5.01,0.72v0.25
			c0,1.27,0.16,2.43,0.48,3.48c0.32,1.05,0.75,1.95,1.31,2.7c0.56,0.75,1.21,1.33,1.96,1.75c0.75,0.42,1.56,0.62,2.43,0.62
			c0.88,0,1.78-0.22,2.7-0.66C85.24,50.69,86.18,49.98,87.12,48.99z M84.37,37.05c0-0.46-0.08-0.88-0.23-1.28
			c-0.15-0.4-0.36-0.74-0.63-1.03c-0.27-0.29-0.59-0.52-0.96-0.69c-0.37-0.17-0.77-0.25-1.2-0.25c-0.63,0-1.21,0.11-1.73,0.34
			c-0.52,0.23-0.98,0.54-1.39,0.93c-0.41,0.39-0.77,0.85-1.08,1.37s-0.58,1.07-0.8,1.66c-0.22,0.58-0.4,1.18-0.53,1.8
			c-0.14,0.61-0.23,1.21-0.29,1.8c1.39-0.1,2.63-0.27,3.73-0.51c1.1-0.24,2.02-0.55,2.78-0.94c0.76-0.38,1.33-0.84,1.73-1.37
			C84.17,38.34,84.37,37.74,84.37,37.05z"/>
		<path class="st0" d="M102.99,38.32c0-0.78-0.13-1.46-0.38-2.04c-0.25-0.57-0.59-1.04-1-1.41c-0.41-0.37-0.87-0.64-1.39-0.82
			c-0.52-0.18-1.03-0.27-1.55-0.27c-0.69,0-1.28,0.07-1.76,0.22c-0.48,0.15-0.87,0.35-1.16,0.61c-0.3,0.26-0.51,0.56-0.64,0.91
			c-0.13,0.35-0.2,0.73-0.2,1.14c0,0.48,0.09,0.95,0.26,1.43c0.17,0.48,0.42,0.95,0.75,1.4l-0.06,0.16
			c-0.56,0.28-1.12,0.42-1.68,0.42c-0.33,0-0.64-0.05-0.93-0.16c-0.29-0.1-0.54-0.26-0.75-0.45c-0.21-0.2-0.38-0.44-0.5-0.73
			c-0.12-0.29-0.18-0.61-0.18-0.97c0-0.58,0.14-1.13,0.42-1.65c0.28-0.51,0.65-0.99,1.11-1.41c0.46-0.43,0.99-0.81,1.6-1.14
			c0.61-0.34,1.23-0.62,1.87-0.85s1.29-0.41,1.94-0.54c0.65-0.12,1.25-0.19,1.81-0.19c1.02,0,1.9,0.14,2.63,0.42
			c0.73,0.28,1.32,0.68,1.77,1.21c0.45,0.53,0.79,1.17,1,1.92c0.21,0.75,0.31,1.6,0.31,2.56c0,0.65-0.03,1.37-0.08,2.15
			c-0.05,0.78-0.11,1.6-0.18,2.46c-0.07,0.86-0.13,1.74-0.18,2.65c-0.05,0.91-0.08,1.82-0.08,2.72c0,1.43,0.26,2.5,0.78,3.22
			c0.52,0.72,1.21,1.08,2.06,1.08c0.75,0,1.59-0.28,2.52-0.85l0.42,0.64c-0.65,0.66-1.37,1.17-2.14,1.52s-1.58,0.52-2.43,0.52
			c-0.63,0-1.22-0.11-1.76-0.33c-0.54-0.22-1-0.54-1.39-0.97c-0.39-0.43-0.69-0.97-0.91-1.63c-0.21-0.65-0.32-1.41-0.32-2.27
			c0-0.26,0.01-0.51,0.02-0.77c0.01-0.26,0.05-0.53,0.1-0.82h-0.09c-0.42,0.85-0.91,1.69-1.46,2.52c-0.55,0.83-1.16,1.57-1.82,2.21
			c-0.66,0.65-1.36,1.17-2.11,1.58c-0.75,0.4-1.53,0.6-2.35,0.6c-0.67,0-1.29-0.12-1.84-0.36c-0.56-0.24-1.03-0.56-1.43-0.98
			s-0.7-0.91-0.92-1.48c-0.22-0.57-0.33-1.19-0.33-1.86c0-0.87,0.16-1.66,0.48-2.38c0.32-0.71,0.76-1.35,1.32-1.92
			s1.23-1.05,2.01-1.46c0.78-0.41,1.63-0.75,2.55-1.03c0.92-0.27,1.89-0.48,2.91-0.61c1.02-0.13,2.07-0.2,3.13-0.2
			c0.07-0.62,0.12-1.23,0.17-1.81C102.97,39.66,102.99,39.02,102.99,38.32z M94.01,48.52c0,0.39,0.04,0.76,0.12,1.11
			c0.08,0.35,0.21,0.66,0.4,0.93c0.18,0.27,0.41,0.48,0.69,0.63c0.28,0.15,0.61,0.23,1,0.23c0.44,0,0.89-0.1,1.36-0.31
			c0.47-0.21,0.93-0.5,1.38-0.86c0.45-0.37,0.89-0.8,1.3-1.32c0.41-0.51,0.79-1.07,1.12-1.67c0.33-0.6,0.61-1.24,0.83-1.91
			c0.22-0.67,0.36-1.35,0.43-2.06c-0.72,0.02-1.44,0.07-2.15,0.14c-0.71,0.07-1.39,0.19-2.03,0.35c-0.64,0.16-1.23,0.37-1.78,0.62
			c-0.55,0.26-1.02,0.58-1.41,0.96c-0.4,0.38-0.71,0.83-0.93,1.35C94.12,47.24,94.01,47.84,94.01,48.52z"/>
		<path class="st0" d="M119.36,13.71c-0.2,1.68-0.39,3.41-0.58,5.18c-0.19,1.77-0.37,3.56-0.54,5.36c-0.17,1.81-0.33,3.62-0.48,5.45
			c-0.15,1.82-0.27,3.62-0.38,5.39c-0.11,1.77-0.19,3.5-0.25,5.21c-0.06,1.7-0.09,3.34-0.09,4.9c0,0.98,0.01,1.82,0.04,2.53
			c0.02,0.7,0.06,1.3,0.12,1.78c0.05,0.49,0.13,0.88,0.22,1.17c0.09,0.3,0.21,0.53,0.34,0.68c0.14,0.16,0.3,0.27,0.48,0.32
			c0.19,0.05,0.4,0.08,0.66,0.08c0.47,0,0.97-0.07,1.52-0.22c0.54-0.14,1.09-0.34,1.65-0.6l0.28,0.77
			c-0.35,0.29-0.79,0.58-1.32,0.88c-0.53,0.3-1.09,0.57-1.68,0.82c-0.59,0.25-1.16,0.45-1.72,0.6c-0.56,0.15-1.05,0.23-1.46,0.23
			c-0.53,0-0.94-0.14-1.25-0.41c-0.31-0.27-0.54-0.72-0.7-1.33c-0.16-0.61-0.26-1.41-0.31-2.4c-0.04-0.99-0.07-2.19-0.07-3.6
			c0-0.52,0.01-1.25,0.04-2.21c0.03-0.96,0.07-2.07,0.12-3.34c0.05-1.27,0.11-2.65,0.18-4.16c0.07-1.51,0.14-3.06,0.22-4.67
			c0.08-1.61,0.16-3.23,0.25-4.87c0.09-1.64,0.18-3.22,0.26-4.75c0.09-1.53,0.17-2.97,0.25-4.33c0.08-1.36,0.15-2.56,0.22-3.6
			c0.01-0.24,0.08-0.44,0.2-0.62c0.13-0.17,0.29-0.31,0.49-0.42c0.2-0.1,0.42-0.18,0.67-0.23c0.25-0.05,0.5-0.07,0.75-0.07
			C118.1,13.23,118.72,13.39,119.36,13.71z"/>
		<path class="st0" d="M136.05,38.32c0-0.78-0.13-1.46-0.38-2.04c-0.25-0.57-0.59-1.04-1-1.41c-0.41-0.37-0.87-0.64-1.39-0.82
			c-0.52-0.18-1.03-0.27-1.55-0.27c-0.69,0-1.28,0.07-1.76,0.22c-0.48,0.15-0.87,0.35-1.16,0.61c-0.3,0.26-0.51,0.56-0.64,0.91
			c-0.13,0.35-0.2,0.73-0.2,1.14c0,0.48,0.09,0.95,0.26,1.43c0.17,0.48,0.42,0.95,0.75,1.4l-0.06,0.16
			c-0.56,0.28-1.12,0.42-1.68,0.42c-0.33,0-0.64-0.05-0.93-0.16c-0.29-0.1-0.54-0.26-0.75-0.45c-0.21-0.2-0.38-0.44-0.5-0.73
			c-0.12-0.29-0.18-0.61-0.18-0.97c0-0.58,0.14-1.13,0.42-1.65c0.28-0.51,0.65-0.99,1.11-1.41c0.46-0.43,0.99-0.81,1.6-1.14
			c0.61-0.34,1.23-0.62,1.87-0.85c0.64-0.23,1.29-0.41,1.94-0.54c0.65-0.12,1.25-0.19,1.81-0.19c1.02,0,1.9,0.14,2.63,0.42
			c0.73,0.28,1.32,0.68,1.77,1.21c0.45,0.53,0.79,1.17,1,1.92c0.21,0.75,0.31,1.6,0.31,2.56c0,0.65-0.03,1.37-0.08,2.15
			c-0.05,0.78-0.11,1.6-0.18,2.46c-0.07,0.86-0.13,1.74-0.18,2.65c-0.05,0.91-0.08,1.82-0.08,2.72c0,1.43,0.26,2.5,0.78,3.22
			c0.52,0.72,1.21,1.08,2.06,1.08c0.75,0,1.59-0.28,2.52-0.85l0.42,0.64c-0.65,0.66-1.37,1.17-2.14,1.52
			c-0.77,0.35-1.58,0.52-2.43,0.52c-0.63,0-1.22-0.11-1.76-0.33c-0.54-0.22-1-0.54-1.39-0.97c-0.39-0.43-0.69-0.97-0.91-1.63
			c-0.21-0.65-0.32-1.41-0.32-2.27c0-0.26,0.01-0.51,0.02-0.77c0.01-0.26,0.05-0.53,0.1-0.82h-0.09c-0.42,0.85-0.91,1.69-1.46,2.52
			c-0.55,0.83-1.16,1.57-1.82,2.21c-0.66,0.65-1.36,1.17-2.11,1.58c-0.75,0.4-1.53,0.6-2.35,0.6c-0.67,0-1.29-0.12-1.84-0.36
			c-0.56-0.24-1.03-0.56-1.43-0.98s-0.7-0.91-0.92-1.48c-0.22-0.57-0.33-1.19-0.33-1.86c0-0.87,0.16-1.66,0.48-2.38
			c0.32-0.71,0.76-1.35,1.32-1.92s1.23-1.05,2.01-1.46c0.78-0.41,1.63-0.75,2.55-1.03c0.92-0.27,1.89-0.48,2.91-0.61
			c1.02-0.13,2.07-0.2,3.13-0.2c0.07-0.62,0.12-1.23,0.17-1.81C136.03,39.66,136.05,39.02,136.05,38.32z M127.06,48.52
			c0,0.39,0.04,0.76,0.12,1.11c0.08,0.35,0.21,0.66,0.4,0.93c0.18,0.27,0.41,0.48,0.69,0.63c0.28,0.15,0.61,0.23,1,0.23
			c0.44,0,0.89-0.1,1.36-0.31c0.47-0.21,0.93-0.5,1.38-0.86c0.45-0.37,0.89-0.8,1.3-1.32c0.41-0.51,0.79-1.07,1.12-1.67
			c0.33-0.6,0.61-1.24,0.83-1.91c0.22-0.67,0.36-1.35,0.43-2.06c-0.72,0.02-1.44,0.07-2.15,0.14c-0.71,0.07-1.39,0.19-2.03,0.35
			c-0.64,0.16-1.23,0.37-1.78,0.62c-0.55,0.26-1.02,0.58-1.41,0.96c-0.4,0.38-0.71,0.83-0.93,1.35
			C127.17,47.24,127.06,47.84,127.06,48.52z"/>
		<path class="st0" d="M148.01,36.5c0-0.41-0.03-0.75-0.09-1.03c-0.06-0.28-0.15-0.5-0.27-0.66s-0.28-0.28-0.46-0.35
			c-0.19-0.07-0.41-0.1-0.66-0.1c-0.35,0-0.77,0.05-1.26,0.15c-0.49,0.1-1.04,0.23-1.67,0.4l-0.22-1.07c0.69-0.25,1.36-0.47,2-0.68
			s1.23-0.38,1.76-0.53c0.54-0.15,1.01-0.26,1.42-0.34c0.41-0.08,0.73-0.12,0.97-0.12c0.57,0,1.01,0.17,1.32,0.51
			c0.32,0.34,0.48,0.93,0.48,1.76c0,0.1-0.01,0.33-0.03,0.69c-0.02,0.36-0.05,0.82-0.08,1.37c-0.03,0.55-0.08,1.19-0.12,1.91
			c-0.05,0.72-0.11,1.48-0.17,2.3c-0.06,0.81-0.13,1.65-0.21,2.52c-0.08,0.87-0.16,1.73-0.25,2.59l0.09,0.01
			c0.74-2.56,1.54-4.71,2.39-6.47c0.85-1.76,1.71-3.18,2.59-4.28c0.88-1.09,1.75-1.88,2.62-2.37c0.87-0.49,1.7-0.73,2.49-0.73
			c0.55,0,1.07,0.1,1.58,0.31c0.51,0.21,0.96,0.54,1.35,1c0.4,0.46,0.71,1.04,0.94,1.76c0.23,0.72,0.35,1.59,0.35,2.61
			c0,0.3-0.02,0.7-0.05,1.2c-0.03,0.5-0.08,1.06-0.12,1.67c-0.05,0.61-0.11,1.27-0.17,1.95s-0.12,1.36-0.17,2.03
			c-0.05,0.66-0.09,1.3-0.12,1.89c-0.03,0.6-0.05,1.12-0.05,1.57c0,0.77,0.03,1.4,0.1,1.89c0.06,0.49,0.17,0.87,0.31,1.15
			c0.15,0.28,0.34,0.48,0.59,0.58c0.24,0.1,0.54,0.16,0.89,0.16c0.51,0,1.03-0.07,1.58-0.22c0.55-0.14,1.1-0.34,1.65-0.6l0.28,0.77
			c-0.35,0.29-0.8,0.58-1.33,0.88c-0.54,0.3-1.1,0.57-1.69,0.82c-0.59,0.25-1.18,0.45-1.76,0.6c-0.59,0.15-1.1,0.23-1.55,0.23
			c-0.53,0-0.94-0.14-1.24-0.43c-0.3-0.29-0.53-0.68-0.68-1.17c-0.15-0.5-0.25-1.07-0.29-1.74c-0.04-0.66-0.07-1.38-0.07-2.14
			c0-0.93,0.03-1.89,0.1-2.88c0.06-0.99,0.13-1.92,0.21-2.82c0.08-0.89,0.15-1.7,0.21-2.43c0.06-0.73,0.1-1.31,0.1-1.75
			c0-1.16-0.21-2.01-0.64-2.56c-0.43-0.55-1-0.82-1.71-0.82c-0.57,0-1.16,0.24-1.79,0.73c-0.62,0.49-1.25,1.15-1.87,2
			c-0.62,0.85-1.22,1.85-1.79,3c-0.57,1.15-1.09,2.4-1.54,3.74c-0.46,1.34-0.84,2.75-1.14,4.21c-0.3,1.47-0.49,2.93-0.57,4.4
			l-3.06,0.39l-0.23-0.01c0.08-0.94,0.15-1.97,0.22-3.08c0.07-1.11,0.13-2.24,0.19-3.38c0.06-1.14,0.11-2.28,0.15-3.4
			c0.04-1.12,0.08-2.17,0.12-3.15c0.03-0.98,0.06-1.85,0.07-2.62C148,37.56,148.01,36.95,148.01,36.5z"/>
		<path class="st0" d="M183.15,38.33c0.27-0.54,0.41-1.1,0.41-1.66c0-0.39-0.07-0.75-0.2-1.09c-0.13-0.34-0.33-0.64-0.59-0.91
			c-0.26-0.26-0.59-0.47-0.99-0.62c-0.4-0.15-0.86-0.23-1.38-0.23c-0.76,0-1.44,0.14-2.05,0.41c-0.61,0.27-1.14,0.65-1.6,1.12
			c-0.46,0.48-0.86,1.03-1.19,1.65c-0.33,0.62-0.6,1.29-0.81,2.01c-0.21,0.71-0.36,1.44-0.46,2.19c-0.1,0.75-0.15,1.48-0.15,2.19
			c0,1.28,0.16,2.44,0.49,3.48c0.33,1.05,0.77,1.94,1.32,2.67c0.56,0.74,1.21,1.31,1.95,1.72c0.74,0.41,1.53,0.61,2.37,0.61
			c0.89,0,1.79-0.24,2.7-0.71c0.91-0.47,1.8-1.23,2.66-2.28c0.06,0.03,0.13,0.07,0.23,0.13c0.09,0.05,0.18,0.12,0.26,0.19
			c0.08,0.07,0.15,0.14,0.2,0.21c0.06,0.07,0.09,0.13,0.09,0.19c0,0.04-0.01,0.06-0.01,0.07l-0.03,0.06
			c-0.95,1.56-2.08,2.72-3.41,3.49s-2.78,1.16-4.36,1.16c-0.86,0-1.65-0.12-2.37-0.36c-0.72-0.24-1.38-0.58-1.96-1.01
			s-1.1-0.94-1.54-1.53c-0.44-0.59-0.81-1.23-1.11-1.92c-0.3-0.69-0.52-1.41-0.67-2.17c-0.15-0.76-0.23-1.52-0.23-2.3
			c0-1.04,0.11-2.08,0.34-3.13c0.22-1.05,0.55-2.05,0.99-3.02c0.43-0.97,0.96-1.87,1.58-2.7c0.62-0.84,1.32-1.57,2.11-2.18
			s1.65-1.1,2.6-1.46c0.95-0.35,1.96-0.53,3.03-0.53c0.8,0,1.55,0.1,2.24,0.3s1.29,0.48,1.79,0.84c0.5,0.36,0.9,0.8,1.19,1.31
			c0.29,0.51,0.43,1.08,0.43,1.7c0,0.41-0.06,0.77-0.18,1.08c-0.12,0.31-0.29,0.58-0.51,0.8c-0.22,0.22-0.48,0.39-0.78,0.51
			c-0.3,0.11-0.62,0.17-0.97,0.17c-0.21,0-0.44-0.02-0.67-0.07c-0.23-0.04-0.46-0.12-0.68-0.22L183.15,38.33z"/>
		<path class="st0" d="M195.82,53.73c-0.25-0.94-0.52-1.93-0.81-2.96c-0.29-1.03-0.58-2.07-0.88-3.11c-0.3-1.04-0.6-2.07-0.89-3.08
			c-0.3-1.01-0.59-1.97-0.86-2.88c-0.28-0.91-0.54-1.76-0.79-2.53c-0.25-0.78-0.47-1.45-0.67-2.01c-0.2-0.58-0.4-1.06-0.59-1.43
			c-0.19-0.37-0.39-0.66-0.59-0.87c-0.2-0.21-0.42-0.35-0.64-0.43c-0.22-0.08-0.47-0.12-0.75-0.12c-0.31,0-0.65,0.03-1,0.1
			c-0.36,0.07-0.78,0.16-1.28,0.28l-0.22-1.07c0.59-0.22,1.16-0.42,1.72-0.59s1.08-0.33,1.56-0.46c0.48-0.13,0.9-0.23,1.27-0.3
			c0.37-0.07,0.66-0.1,0.88-0.1c0.25,0,0.5,0.04,0.72,0.13c0.23,0.09,0.45,0.25,0.67,0.47c0.22,0.22,0.43,0.53,0.64,0.92
			c0.2,0.39,0.41,0.88,0.61,1.48c0.14,0.38,0.3,0.86,0.49,1.45c0.19,0.59,0.4,1.26,0.62,2.01c0.22,0.75,0.46,1.56,0.72,2.44
			c0.25,0.88,0.51,1.8,0.77,2.76c0.26,0.96,0.51,1.93,0.77,2.93c0.25,1,0.5,1.99,0.73,2.97c0.49-1.3,1-2.65,1.53-4.06
			c0.53-1.41,1.07-2.83,1.62-4.26c0.55-1.43,1.1-2.84,1.65-4.24c0.55-1.4,1.07-2.74,1.58-4.02c0.09-0.22,0.21-0.4,0.36-0.54
			c0.15-0.14,0.32-0.25,0.5-0.33c0.19-0.08,0.38-0.14,0.58-0.18c0.2-0.03,0.4-0.05,0.59-0.05c0.32,0,0.63,0.05,0.94,0.14
			c0.3,0.09,0.59,0.21,0.86,0.35c-0.44,0.72-0.9,1.53-1.37,2.41c-0.47,0.89-0.96,1.83-1.46,2.84c-0.5,1.01-1,2.05-1.5,3.14
			c-0.5,1.09-1,2.2-1.5,3.34c-0.5,1.13-0.99,2.27-1.47,3.42c-0.48,1.14-0.95,2.27-1.4,3.38c-0.46,1.12-0.89,2.23-1.3,3.32
			c-0.41,1.09-0.81,2.15-1.2,3.18c-0.39,1.03-0.77,2.01-1.15,2.96c-0.38,0.95-0.76,1.83-1.15,2.65c-0.37,0.76-0.77,1.47-1.19,2.13
			c-0.42,0.66-0.88,1.23-1.39,1.71c-0.51,0.48-1.07,0.86-1.68,1.14c-0.61,0.28-1.29,0.42-2.03,0.42c-0.46,0-0.87-0.06-1.24-0.19
			c-0.37-0.12-0.69-0.29-0.94-0.49c-0.26-0.2-0.46-0.44-0.59-0.71c-0.14-0.27-0.2-0.55-0.2-0.85c0-0.33,0.1-0.67,0.29-1.02
			c0.19-0.35,0.44-0.62,0.75-0.79c0.41,0.26,0.82,0.44,1.24,0.55c0.42,0.11,0.8,0.16,1.13,0.16c0.8,0,1.51-0.22,2.13-0.66
			c0.62-0.44,1.2-1.1,1.75-1.98c0.55-0.88,1.1-1.99,1.65-3.31c0.55-1.33,1.16-2.88,1.84-4.67l0.29-0.79L195.82,53.73z"/>
	</g>
</g>
</svg>
