<?xml version="1.0" encoding="utf-8"?>
<!-- Generator: Adobe Illustrator 25.0.0, SVG Export Plug-In . SVG Version: 6.00 Build 0)  -->
<svg version="1.1" id="Layer_1" xmlns="http://www.w3.org/2000/svg" xmlns:xlink="http://www.w3.org/1999/xlink" x="0px" y="0px"
	 viewBox="0 0 150 150" style="enable-background:new 0 0 150 150;" xml:space="preserve">
<g>
	<path d="M89.9,104.7c0.3,3.7,0.1,7.4-0.6,11c-1.9,8.7-6.2,15.9-13.1,21.6c-4.2,3.4-8.9,6-14.2,7.2c-15.6,3.7-28.7-0.5-39-12.6
		c-6.9-8.1-9.5-17.8-8.3-28.4c0.3-2.9,1-5.7,2-8.5c0.2-0.6,0.1-0.9-0.5-1.2c-1.9-1-3.8-2.1-5.7-3.1c-0.9-0.5-1.4-1.2-1.4-2.3
		c0-10.8,0.1-21.6,0.1-32.4c0-6.2,0.1-12.4,0.1-18.5c0-4.6,0-9.2,0-13.8c0-1.4,0.6-2.2,2-2.5c5.8-1.2,11.5-2.5,17.3-3.7
		c6.2-1.3,12.4-2.7,18.6-4c10.7-2.3,21.3-4.5,32-6.8c4-0.8,8-1.7,11.9-2.6c1-0.2,1.8-0.1,2.7,0.3c13.6,5.9,27.2,11.8,40.8,17.7
		c1.5,0.6,2.9,1.3,4.4,1.9c1.3,0.5,1.8,1.4,1.8,2.7c-0.1,12.6-0.1,25.1-0.2,37.7c0,8.8-0.1,17.7-0.1,26.5c0,1.9-0.5,2.6-2.3,3
		c-10,2.2-20,4.4-30,6.6c-5.9,1.3-11.9,2.6-17.8,3.9C90.3,104.6,90.1,104.7,89.9,104.7z M13.8,27.3c0,0.4-0.1,0.6-0.1,0.9
		c0,7.1,0,14.2-0.1,21.3c0,10-0.1,20.1-0.1,30.1c0,2.4,0,4.8,0,7.3c0,0.3,0.1,0.7,0.2,0.8c1.6,0.9,3.2,1.8,4.8,2.6
		C27.7,75.5,40.7,68.1,58,70.8c16.8,2.6,26.9,13.2,31.4,29.4c15.5-3.4,31.1-6.9,46.8-10.4c0-20.2,0-40.4,0-60.5c0,0,0,0-0.1,0
		c-5.7,1.4-11.4,2.9-17,4.3c-4.2,1.1-8.4,2.2-12.7,3.3c-9.9,2.6-19.8,5.1-29.7,7.6c-6.6,1.7-13.2,3.4-19.8,5.1
		c-0.9,0.2-1.7,0.2-2.5-0.3c-0.9-0.5-1.7-1-2.6-1.5c-11.7-6.4-23.4-12.7-35.1-19.1C15.8,28.3,14.8,27.8,13.8,27.3z M18.8,108
		c0.2,19.4,16,33.8,34.2,33.4c18.5-0.4,33-15.6,32.6-34.3c-0.4-18.1-15.3-32.7-33.9-32.5C33.6,74.9,18.9,89.6,18.8,108z M17.9,24.4
		c1.4,0.8,2.5,1.4,3.7,2c11,6,22,11.9,33,18c1.1,0.6,2.2,0.9,3.4,0.4c0.6-0.3,1.3-0.3,1.9-0.5c19.8-5.1,39.5-10.1,59.3-15.2
		c4.1-1.1,8.3-2.1,12.6-3.3c-0.4-0.2-0.7-0.3-0.9-0.4c-3.7-1.6-7.5-3.2-11.2-4.9c-8.9-3.9-17.8-7.7-26.7-11.6
		c-0.5-0.2-1.3-0.3-1.9-0.2c-1.6,0.3-3.1,0.7-4.7,1C76.6,11.9,66.8,14,57,16c-8.2,1.7-16.4,3.5-24.6,5.3
		C27.7,22.3,22.9,23.3,17.9,24.4z"/>
	<path d="M42.1,100.8c2.8,0,5.6,0,8.3,0c3.6,0,7.2-0.2,10.7,0c4.9,0.3,8.9,4,9.9,8.8c1,5-1.3,9.8-5.8,12.1c-1.5,0.8-3.1,1.2-4.8,1.2
		c-4.8,0-9.5,0-14.3,0c-1.2,0-2.1-0.7-2.3-1.8c-0.2-1.2,0.4-2.2,1.4-2.5c0.4-0.1,0.8-0.1,1.2-0.1c4.5,0,9,0,13.6,0
		c3.4,0,6.3-2.6,6.7-5.9c0.4-3.4-1.8-6.5-5.2-7.2c-0.9-0.2-1.9-0.2-2.9-0.2c-5.3,0-10.6,0.1-15.9,0.1c-0.2,0-0.4,0-0.7,0
		c0,1.4,0,2.8,0,4.2c0,2.9-3,4.6-5.5,3.1c-3.6-2.1-7.3-4.2-10.9-6.3c-1.2-0.7-2-1.7-2.1-3.2c0-1.6,0.8-2.6,2.1-3.4
		c3.5-2,7-4,10.5-6.1c1.3-0.8,2.6-1,4-0.2c1.4,0.8,1.9,2,1.8,3.6C42.1,98.2,42.1,99.4,42.1,100.8z M37.6,108c0-3.4,0-6.6,0-9.9
		c-2.9,1.7-5.7,3.3-8.6,5C32,104.7,34.7,106.3,37.6,108z"/>
</g>
</svg>
