<?xml version="1.0" encoding="utf-8"?>
<!-- Generator: Adobe Illustrator 25.0.0, SVG Export Plug-In . SVG Version: 6.00 Build 0)  -->
<svg version="1.1" id="Layer_1" xmlns="http://www.w3.org/2000/svg" xmlns:xlink="http://www.w3.org/1999/xlink" x="0px" y="0px"
	 viewBox="0 0 150 150" style="enable-background:new 0 0 150 150;" xml:space="preserve">
<g>
	<path d="M91.5,136.3c-0.5-0.3-0.9-0.6-1.4-0.8c-3-1.3-4.7-3.6-5.9-6.6c-0.1-0.3-0.1-0.6-0.1-0.9c-0.1-9.1-0.1-18.2-0.2-27.3
		c0-0.3,0-0.6,0-1c-0.4,0-0.7,0-1,0c-14.2,0-28.4,0-42.7,0c-6.9,0-13.9,0-20.8-0.1c-2,0-3.9-0.2-5.9-0.2c-2.7,0-4.8-1.4-6.7-3.2
		c-1.7-1.6-2.7-3.5-3.5-5.7c-0.1-0.2-0.1-0.4-0.1-0.6c0-20-0.1-39.9-0.1-59.9c0-1.6,0.1-3.2,0.1-4.8c0-4.2,3.6-9.6,9.1-11
		c1-0.3,2.2-0.2,3.3-0.2c6.5-0.1,13-0.1,19.5-0.1c21.1,0,42.3-0.1,63.4-0.1c5.9,0,11.9,0.1,17.8,0.1c1.9,0,3.8,0.2,5.5,1.1
		c4.3,2.3,6.8,5.8,6.9,10.6c0.2,12.6,0.2,25.2,0.2,37.7c0,0.9,0.3,1.2,1.1,1.5c3.9,1.4,6.4,4.2,7.3,8.2c0.3,1.4,0.3,2.9,0.3,4.4
		c0.1,3,0,6.1,0,9.1c0,0.3,0,0.5,0,0.8c0.6,0.1,1.2,0.2,1.7,0.4c2.8,0.8,4.8,2.6,6.1,5.1c0.3,0.6,0.7,1.2,1,1.9
		c0,11.4,0,22.7,0,34.1c-0.2,0.5-0.5,0.9-0.7,1.4c-1.1,2.3-2.7,4.1-5.1,5.2c-0.6,0.3-1.2,0.6-1.7,0.9
		C123.3,136.3,107.4,136.3,91.5,136.3z M7.6,38.9c0,0.3,0,0.6,0,0.8c0,16.1,0.1,32.3,0.1,48.4c0,1.3,0.3,2.5,1.1,3.5
		c1.6,2.2,3.6,3.6,6.4,3.6c2.8,0,5.7,0.1,8.5,0.1c17,0.1,34,0.1,51,0.1c3.2,0,6.3,0,9.5,0c0.1-0.1,0.1-0.1,0.1-0.2
		c0.1-0.1,0.1-0.3,0.1-0.4c1.1-3.8,3.7-6.2,7.5-7.3c0.7-0.2,1-0.6,1-1.3c0.1-3.7,0.3-7.5,0.2-11.2c0-1.8,0.4-3.4,1.3-5
		c2.3-3.9,5.7-6.1,10.2-6.2c6.4-0.2,12.8-0.2,19.2-0.3c0.3,0,0.7,0,1,0c0-8.3,0-16.6,0-24.8C85.7,38.9,46.7,38.9,7.6,38.9z
		 M7.6,34.8c39.1,0,78.2,0,117.2,0c0-0.2,0.1-0.3,0.1-0.5c0-2.1,0-4.3,0-6.4c0-1.2-0.1-2.4-0.3-3.6c-0.4-2.5-2.2-4.1-4.3-5.4
		c-1-0.6-2-0.8-3.2-0.8c-25.1,0-50.2,0-75.3,0c-8.8,0-17.5,0.1-26.3,0.2c-0.9,0-1.8,0-2.7,0.3c-2.5,0.9-5.1,3.9-5.2,6.8
		c0,1.8-0.1,3.6-0.1,5.3C7.6,32,7.6,33.4,7.6,34.8z M115.5,132C115.5,132,115.5,132,115.5,132c3.9,0,7.9,0.1,11.8,0
		c3.4,0,6.8-0.1,10.2-0.2c2.5-0.1,4.6-2.2,4.8-4.7c0.1-0.9,0.1-1.8,0.1-2.7c0-9.2-0.1-18.4-0.1-27.6c0-1.3-0.4-2.2-1.2-3.1
		c-1-1.2-2.3-1.9-3.9-1.9c-1.5,0-3-0.1-4.5-0.1c-12.7-0.1-25.4-0.1-38.1-0.2c-1.9,0-3.4,0.8-4.7,2c-0.9,0.9-1.5,1.9-1.4,3.3
		c0,7,0,14,0,21.1c0,3.1,0,6.3,0.2,9.4c0.1,2.1,2,4.2,4.1,4.4c1.3,0.2,2.6,0.2,3.9,0.2C102.9,132,109.2,132,115.5,132z M97.4,87.2
		c12.1,0,24.3,0,36.5,0c-0.1-4.2-0.2-8.3-0.4-12.4c-0.2-3.2-3.4-6.3-6.6-6.4c-7.4-0.1-14.7-0.2-22.1-0.1c-3,0-5.3,1.5-6.7,4.2
		c-0.3,0.6-0.7,1.2-0.8,1.9c-0.1,4.2,0,8.3,0,12.5C97.3,86.9,97.4,87,97.4,87.2z"/>
	<path d="M37.1,87.9c-5.1,0-10.2,0.1-15.3,0c-2.8,0-5.3-2.5-5.5-5.3c-0.1-1.3-0.1-2.6-0.2-3.9c0-3.8,0-7.5,0-11.3
		c0-0.6,0.2-1.2,0.4-1.6c0.5-0.9,1.1-1.8,1.8-2.5c1-1,2.2-1.6,3.7-1.6c9.1,0,18.2-0.1,27.3-0.1c0.9,0,1.8,0.1,2.6,0.1
		c2.8,0.1,5.6,2.8,5.5,5.8c0,1.5,0.1,2.9,0,4.4c0,3.8,0,7.6-0.1,11.3c0,0.4-0.2,0.9-0.4,1.2c-0.4,0.6-0.9,1.2-1.4,1.8
		c-1.1,1.2-2.4,1.8-4.1,1.8C46.8,87.9,41.9,87.9,37.1,87.9C37.1,87.9,37.1,87.9,37.1,87.9z M36.9,83.9c4.9,0,9.7,0,14.6,0
		c0.3,0,0.7-0.2,1-0.4c0.9-0.6,0.9-1.5,0.9-2.4c0-4.2,0.1-8.4,0.1-12.6c0-1.9-0.7-2.5-2.6-2.6c-5.8-0.1-11.6-0.1-17.3-0.1
		c-3.8,0-7.6,0.1-11.4,0.1c-0.9,0-1.3,0.3-1.5,1.2c-0.2,0.8-0.3,1.6-0.3,2.4c-0.1,3.2-0.1,6.4-0.1,9.6c0,1,0,2,0.2,2.9
		c0.2,1.2,1.1,1.9,2.2,1.9C27.5,83.9,32.2,83.9,36.9,83.9z"/>
	<path d="M115.4,128.1c-1.6-0.1-3.2-0.2-4.8-0.3c-0.5,0-1-0.1-1.4-0.4c-1.3-0.6-2.3-1.5-2.1-3.1c0.2-2.5,0.4-5,0.7-7.6
		c0.1-0.8-0.1-1.3-0.6-1.9c-2.2-3.2-3-6.6-1.5-10.3c1.5-3.7,4.3-6,8.3-6.5c5.6-0.7,9.5,2.5,11.2,6.4c0.3,0.8,0.5,1.6,0.5,2.5
		c0.1,1.2,0,2.3-0.1,3.5c-0.2,1.9-1,3.4-2.3,4.8c-0.3,0.4-0.4,0.7-0.4,1.2c0.3,2.3,0.6,4.7,0.9,7c0.4,2.7-1.6,4.3-3.6,4.5
		c-0.4,0-0.8,0.1-1.2,0.1c-1.2,0-2.5,0-3.7,0C115.4,128,115.4,128,115.4,128.1z M115.7,124c0,0,0-0.1,0-0.1c1.1,0,2.2,0,3.4,0
		c0.7,0,0.9-0.3,0.7-1c-0.4-2.3-0.6-4.6-1.2-6.9c-0.3-1.4,0-2.4,1.1-3.3c1.8-1.5,2.2-3.6,1.7-5.9c-0.6-3-3.6-5.1-6.6-4.8
		c-3.1,0.3-5.4,2.8-5.6,6c-0.1,2,0.8,3.6,2.2,4.9c0.9,0.8,1.1,1.6,0.8,2.8c-0.4,2.1-0.7,4.2-0.9,6.4c-0.2,1.5,0.2,1.9,1.7,1.9
		C113.9,124,114.8,124,115.7,124z"/>
</g>
</svg>
