<svg id="Layer_1" data-name="Layer 1" xmlns="http://www.w3.org/2000/svg" xmlns:xlink="http://www.w3.org/1999/xlink" width="50" height="32" viewBox="0 0 50 32"><defs><style>.cls-1{fill:#dfdfe0;}.cls-2{fill:url(#linear-gradient);}</style><linearGradient id="linear-gradient" x1="-1002.124" y1="72.7858" x2="-1002.1096" y2="72.6205" gradientTransform="translate(256566.9075 -5994.1267) scale(256 82.6684)" gradientUnits="userSpaceOnUse"><stop offset="0" stop-color="#222357"/><stop offset="1" stop-color="#254aa5"/></linearGradient></defs><rect class="cls-1" width="50" height="32" rx="1.895"/><path class="cls-2" d="M25.7128,13.5837c-.0237,1.8668,1.6636,2.9085,2.9346,3.5279,1.306.6355,1.7446,1.043,1.74,1.6112-.01.87-1.0417,1.2536-2.0075,1.2686a7.0072,7.0072,0,0,1-3.4431-.8187l-.6068,2.84a10.0966,10.0966,0,0,0,3.7284.6879c3.5216,0,5.8257-1.7384,5.8382-4.4338.0137-3.4206-4.7316-3.61-4.6992-5.139.0112-.4636.4536-.9583,1.4231-1.0842a6.3126,6.3126,0,0,1,3.306.5795l.5894-2.7478A8.9892,8.9892,0,0,0,31.3777,9.3c-3.3147,0-5.6462,1.7621-5.6649,4.2842M40.1792,9.5363a1.5284,1.5284,0,0,0-1.4269.9508L33.7217,22.4986h3.5191l.7-1.9353h4.3l.4063,1.9353h3.1016L43.0428,9.5363H40.1792m.4922,3.5016,1.0156,4.8674H38.9056l1.7658-4.8674M21.446,9.5363,18.6721,22.4986h3.3534L24.7981,9.5363H21.446m-4.9608,0-3.49,8.8226-1.4118-7.5017a1.5633,1.5633,0,0,0-1.5465-1.3209H4.33l-.08.3763a13.9561,13.9561,0,0,1,3.3085,1.1029,1.419,1.419,0,0,1,.7963,1.1389L11.03,22.4986h3.544L20.0067,9.5363H16.4852"/></svg>